<?xml version="1.0" encoding="utf-8"?>
<svg viewBox="0 0 32 32" fill="#000000" style="fill-rule:evenodd;clip-rule:evenodd;stroke-linejoin:round;stroke-miterlimit:2;" xmlns="http://www.w3.org/2000/svg">
  <path d="M 27 6 C 27 4.674 26.473 3.402 25.536 2.464 C 24.598 1.527 23.326 1 22 1 C 18.514 1 13.486 1 10 1 C 8.674 1 7.402 1.527 6.464 2.464 C 5.527 3.402 5 4.674 5 6 C 5 11.322 5 20.678 5 26 C 5 27.326 5.527 28.598 6.464 29.536 C 7.402 30.473 8.674 31 10 31 C 13.486 31 18.514 31 22 31 C 23.326 31 24.598 30.473 25.536 29.536 C 26.473 28.598 27 27.326 27 26 L 27 6 Z M 12 26 L 17 26 C 17.552 26 18 25.552 18 25 C 18 24.448 17.552 24 17 24 L 12 24 C 11.448 24 11 24.448 11 25 C 11 25.552 11.448 26 12 26 Z M 11 20 L 21 20 C 21.552 20 22 19.552 22 19 C 22 18.448 21.552 18 21 18 L 11 18 C 10.448 18 10 18.448 10 19 C 10 19.552 10.448 20 11 20 Z M 11 14 L 21 14 C 21.552 14 22 13.552 22 13 C 22 12.448 21.552 12 21 12 L 11 12 C 10.448 12 10 12.448 10 13 C 10 13.552 10.448 14 11 14 Z M 11 8 L 21 8 C 21.552 8 22 7.552 22 7 C 22 6.448 21.552 6 21 6 L 11 6 C 10.448 6 10 6.448 10 7 C 10 7.552 10.448 8 11 8 Z" style="fill: rgb(69, 69, 69); stroke: rgb(255, 255, 255);" transform="matrix(0.9999999999999999, 0, 0, 0.9999999999999999, 0, 0)"/>
  <g id="Icon" transform="matrix(0.9999999999999999, 0, 0, 0.9999999999999999, 0, 0)"/>
</svg>