<?xml version="1.0" encoding="utf-8"?>
<svg viewBox="0 0 300 300" xmlns="http://www.w3.org/2000/svg">
  <path d="M 231.073 172.432 C 231.073 166.081 229.361 160.64 225.692 155.805 L 120.773 26.414 C 117.105 21.879 111.968 17.947 105.853 14.622 C 99.494 11.298 93.871 9.786 88.734 9.786 L 27.592 9.786 C 22.456 9.786 18.056 12.206 14.386 16.739 C 10.716 21.275 8.759 26.717 8.759 33.067 L 8.759 108.344 C 8.759 114.693 9.981 121.947 12.671 129.504 C 15.363 137.365 18.297 143.412 22.211 147.947 L 127.131 277.638 C 130.799 282.174 135.201 284.288 140.336 284.288 C 145.472 284.288 149.873 282.174 153.787 277.638 L 225.69 188.757 C 229.118 184.22 231.073 178.781 231.073 172.432 Z M 68.923 84.459 C 65.256 88.994 60.854 91.108 55.718 91.108 C 50.582 91.108 46.18 88.994 42.513 84.459 C 38.845 79.923 37.13 74.484 37.13 68.132 C 37.13 61.782 38.842 56.343 42.513 51.81 C 46.18 47.274 50.582 45.156 55.718 45.156 C 60.854 45.156 65.258 47.271 68.923 51.81 C 72.591 56.343 74.304 61.782 74.304 68.132 C 74.548 74.482 72.594 79.923 68.923 84.459 Z M 281.944 155.805 L 177.025 26.414 C 173.357 21.879 168.22 17.947 162.105 14.622 C 155.746 11.298 150.123 9.786 144.986 9.786 L 111.968 9.786 C 117.105 9.786 122.976 11.298 129.09 14.622 C 135.449 17.947 140.338 21.574 144.006 26.414 L 248.927 155.805 C 252.595 160.64 254.308 166.085 254.308 172.432 C 254.308 178.781 252.597 184.22 248.927 188.757 L 180.203 274.011 C 183.137 277.638 185.828 280.362 188.028 282.174 C 190.231 283.986 193.165 284.59 196.588 284.59 C 201.725 284.59 206.125 282.474 210.039 277.94 L 281.943 188.757 C 285.61 184.224 287.322 178.781 287.322 172.432 C 287.325 166.081 285.612 160.64 281.944 155.805 Z M 281.944 155.805" style="fill: rgb(70, 70, 70); stroke-dashoffset: -13px; stroke: rgb(209, 209, 209); stroke-width: 17px;"/>
</svg>