<?xml version="1.0" encoding="utf-8"?>
<svg viewBox="0 0 24 24" fill="none" xmlns="http://www.w3.org/2000/svg">
  <path d="M2.25 10C2.25 5.71979 5.71979 2.25 10 2.25C14.2802 2.25 17.75 5.71979 17.75 10C17.75 14.2802 14.2802 17.75 10 17.75C5.71979 17.75 2.25 14.2802 2.25 10Z" style="stroke-width: 2px; stroke: rgb(209, 209, 209); fill: rgb(70, 70, 70);" transform="matrix(1, 0, 0, 1, 1.7763568394002505e-15, 0)"/>
  <path d="M 16.071 14.933 C 16.415 14.59 18.111 14.736 18.509 15.014 L 22.318 18.095 C 23.209 18.719 22.957 20.104 22.188 20.873 L 21.873 21.188 C 21.104 21.957 19.505 22.616 18.881 21.725 L 15.542 18.065 C 15.264 17.668 15.247 15.737 15.59 15.393 L 16.071 14.933 Z" style="stroke-width: 2px; stroke: rgb(209, 209, 209); fill: rgb(70, 70, 70);" transform="matrix(1, 0, 0, 1, 1.7763568394002505e-15, 0)"/>
</svg>